<svg xmlns="http://www.w3.org/2000/svg" version="1.1" xmlns:xlink="http://www.w3.org/1999/xlink" xmlns:svgjs="http://svgjs.dev/svgjs" width="1440" height="560" preserveAspectRatio="none" viewBox="0 0 1440 560"><g mask="url(&quot;#SvgjsMask4803&quot;)" fill="none"><rect width="1440" height="560" x="0" y="0" fill="url(&quot;#SvgjsLinearGradient4804&quot;)"></rect><path d="M222.18 -22.48L296.66 20.52L296.66 106.52L222.18 149.52L147.7 106.52L147.7 20.52zM296.66 106.52L371.14 149.52L371.14 235.52L296.66 278.52L222.18 235.52L222.18 149.52zM222.18 235.52L296.66 278.52L296.66 364.52L222.18 407.52L147.7 364.52L147.7 278.52zM296.66 364.52L371.14 407.52L371.14 493.52L296.66 536.52L222.18 493.52L222.18 407.52zM222.18 493.52L296.66 536.52L296.66 622.52L222.18 665.52L147.7 622.52L147.7 536.52zM445.62 106.52L520.1 149.52L520.1 235.52L445.62 278.52L371.14 235.52L371.14 149.52zM445.62 364.52L520.1 407.52L520.1 493.52L445.62 536.52L371.14 493.52L371.14 407.52zM594.58 106.52L669.06 149.52L669.06 235.52L594.58 278.52L520.1 235.52L520.1 149.52zM594.58 364.52L669.06 407.52L669.06 493.52L594.58 536.52L520.1 493.52L520.1 407.52zM520.1 493.52L594.58 536.52L594.58 622.52L520.1 665.52L445.62 622.52L445.62 536.52zM743.54 106.52L818.02 149.52L818.02 235.52L743.54 278.52L669.06 235.52L669.06 149.52zM669.06 235.52L743.54 278.52L743.54 364.52L669.06 407.52L594.58 364.52L594.58 278.52zM743.54 364.52L818.02 407.52L818.02 493.52L743.54 536.52L669.06 493.52L669.06 407.52zM892.5 106.52L966.98 149.52L966.98 235.52L892.5 278.52L818.02 235.52L818.02 149.52zM892.5 364.52L966.98 407.52L966.98 493.52L892.5 536.52L818.02 493.52L818.02 407.52zM966.98 -22.48L1041.46 20.52L1041.46 106.52L966.98 149.52L892.5 106.52L892.5 20.52zM966.98 235.52L1041.46 278.52L1041.46 364.52L966.98 407.52L892.5 364.52L892.5 278.52zM1190.42 106.52L1264.9 149.52L1264.9 235.52L1190.42 278.52L1115.94 235.52L1115.94 149.52zM1339.39 106.52L1413.87 149.52L1413.87 235.52L1339.39 278.52L1264.9 235.52L1264.9 149.52zM1264.9 493.52L1339.39 536.52L1339.39 622.52L1264.9 665.52L1190.42 622.52L1190.42 536.52zM1413.87 235.52L1488.35 278.52L1488.35 364.52L1413.87 407.52L1339.39 364.52L1339.39 278.52zM1413.87 493.52L1488.35 536.52L1488.35 622.52L1413.87 665.52L1339.39 622.52L1339.39 536.52z" stroke="url(&quot;#SvgjsLinearGradient4805&quot;)" stroke-width="2"></path></g><defs><mask id="SvgjsMask4803"><rect width="1440" height="560" fill="#ffffff"></rect></mask><linearGradient x1="84.72%" y1="-39.29%" x2="15.28%" y2="139.29%" gradientUnits="userSpaceOnUse" id="SvgjsLinearGradient4804"><stop stop-color="rgba(255, 255, 255, 1)" offset="0.18"></stop><stop stop-color="rgba(255, 255, 255, 1)" offset="0.48"></stop><stop stop-color="rgba(255, 255, 255, 1)" offset="0.58"></stop><stop stop-color="rgba(255, 255, 255, 1)" offset="1"></stop><stop stop-color="rgba(14, 42, 71, 1)" offset="1"></stop><stop stop-color="rgba(255, 255, 255, 1)" offset="1"></stop></linearGradient><linearGradient x1="220.03199999999998" y1="-220.02399999999997" x2="1219.9679999999998" y2="780.024" gradientUnits="userSpaceOnUse" id="SvgjsLinearGradient4805"><stop stop-color="#0e2a47" offset="0"></stop><stop stop-color="rgba(255, 255, 255, 1)" offset="1"></stop></linearGradient></defs></svg>